<?xml version="1.0" encoding="UTF-8"?>
<svg width="310px" height="310px" viewBox="0 0 310 310" version="1.1" xmlns="http://www.w3.org/2000/svg" xmlns:xlink="http://www.w3.org/1999/xlink">
    <!-- Generator: Sketch 48.2 (47327) - http://www.bohemiancoding.com/sketch -->
    <title>safari-pinned-tab</title>
    <desc>Created with Sketch.</desc>
    <defs></defs>
    <g id="Page-1" stroke="none" stroke-width="1" fill="none" fill-rule="evenodd">
        <g id="safari-pinned-tab">
            <g id="Group">
                <g id="ueno-logo" transform="translate(40.566406, 127.937500)" fill="#000000" fill-rule="nonzero">
                    <path d="M122.840489,51.8644375 L109.217366,51.8644375 L109.217366,2.25184375 L122.83468,2.25184375 L122.83468,10.3544687 C125.964535,4.27380983 132.354127,0.580930501 139.182428,0.90625 C152.573174,0.90625 157.453099,9.915625 157.453099,20.9332188 L157.453099,51.8644375 L143.835785,51.8644375 L143.835785,23.6273125 C143.835785,15.9809687 140.771308,11.589625 134.075935,11.589625 C127.153994,11.589625 122.840489,16.9865312 122.840489,25.3129375 L122.840489,51.8644375 Z M188.806616,53.21875 C174.399886,53.0585472 162.838436,41.2662329 162.955558,26.8514864 C163.07268,12.4367399 174.824218,0.834047369 189.231648,0.908211485 C203.639077,0.9823756 215.270669,12.7054359 215.239542,27.120625 C215.239542,42.5324687 204.346853,53.21875 188.806616,53.21875 Z M188.806616,42.9800312 C197.204153,42.9800312 201.517658,36.4584062 201.517658,27.120625 C201.517658,17.6636875 197.204153,11.13625 188.806616,11.13625 C180.522363,11.13625 176.211762,17.657875 176.211762,27.120625 C176.205953,36.4555 180.516553,42.977125 188.806616,42.977125 L188.806616,42.9800312 Z M34.6126098,2.25184375 L48.218305,2.25184375 L48.218305,51.8644375 L34.6009909,51.8644375 L34.6009909,43.7618125 C31.4762661,49.8399188 25.0947544,53.5354714 18.270671,53.21875 C4.87992484,53.21875 2.84217094e-14,44.209375 2.84217094e-14,33.1946875 L2.84217094e-14,2.25184375 L13.6173141,2.25184375 L13.6173141,30.491875 C13.6173141,38.1382188 16.6817907,42.5295625 23.3771638,42.5295625 C30.2991048,42.5295625 34.6126098,37.1268438 34.6126098,28.8004375 L34.6126098,2.25184375 Z M91.321403,37.7545938 C88.8643552,41.3868157 84.625057,43.3917431 80.2602401,42.9858438 C73.0749052,43.2302048 67.0174321,37.672329 66.6400213,30.4889688 L104.203824,30.4889688 L104.203824,25.6529688 C104.203824,12.1534375 95.8062863,0.903343751 79.4643476,0.903343751 C72.3571363,0.772445253 65.511649,3.58522988 60.5477762,8.6760909 C55.5839033,13.7669519 52.9427378,20.683512 53.2492751,27.7890625 C53.2492751,43.4246875 64.3714372,53.2129375 79.8041995,53.2129375 C89.5930963,53.2129375 96.9420308,49.4086563 101.008635,42.7068438 L91.321403,37.7545938 Z M79.3510636,10.8020312 C82.3905193,10.7075638 85.338263,11.8507685 87.5200399,13.9701535 C89.7018167,16.0895385 90.9309748,19.0037894 90.9263744,22.0463125 L66.8665892,22.0463125 C68.1156176,15.867625 71.8627027,10.8049375 79.3510636,10.8049375 L79.3510636,10.8020312 Z M222.634952,52.9426562 C218.877351,52.9603562 215.816451,49.9277644 215.797248,46.1681875 L215.797248,45.8775625 C215.805702,44.0716061 216.530855,42.3429794 217.813178,41.0719707 C219.095501,39.800962 220.829948,39.0916889 222.634952,39.1001875 C224.44146,39.0916912 226.177224,39.8021596 227.459798,41.0750523 C228.742371,42.3479449 229.466508,44.0788109 229.472656,45.8862813 L229.472656,46.1769063 C229.451855,49.9353458 226.391425,52.9661719 222.634952,52.9484688 L222.634952,52.9426562 Z" id="Shape"></path>
                </g>
                <rect id="Rectangle" x="0" y="0" width="310" height="310"></rect>
            </g>
        </g>
    </g>
</svg>